<svg xmlns="http://www.w3.org/2000/svg" width="112.262" height="112.262" viewBox="0 0 112.262 112.262">
  <g id="Grupo_31911" data-name="Grupo 31911" transform="translate(-124 -138)">
    <g id="emoji" transform="translate(124 138)" opacity="0.98">
      <path id="Trazado_11914" data-name="Trazado 11914" d="M77.268,112.262H34.994A35.034,35.034,0,0,1,0,77.268V34.994A35.034,35.034,0,0,1,34.994,0H77.268a35.034,35.034,0,0,1,34.994,34.994V77.268A35.034,35.034,0,0,1,77.268,112.262Z" fill="#ffeb4b"/>
      <path id="Trazado_11915" data-name="Trazado 11915" d="M312.131,77.268V34.994A35.034,35.034,0,0,0,277.137,0H256V112.262h21.137A35.034,35.034,0,0,0,312.131,77.268Z" transform="translate(-199.869)" fill="#ffbe00"/>
    </g>
    <g id="Grupo_31912" data-name="Grupo 31912" transform="translate(-662.918 -222.121)">
      <path id="Trazado_11923" data-name="Trazado 11923" d="M1001.519,529.113a20.849,20.849,0,0,1,5.274,9.349l.6,3.706a8.564,8.564,0,0,1-3.205,7.265,8.967,8.967,0,0,1-5.713,1.7l-4.144,0-14.808-.009v-.077q.005-13.77.01-27.539l3.9-.106,4.143.007a21.1,21.1,0,0,1,11.741,3.816Z" transform="translate(-136.233 -93.014)" fill="#0a1e27"/>
      <path id="Trazado_11924" data-name="Trazado 11924" d="M1037,414.53c-.7,4.588-3.177,7.659-7.674,9-.586.175-1.2.256-1.8.38a16.27,16.27,0,0,1-3.708-.418,10.751,10.751,0,0,1-7.171-7.662,15.049,15.049,0,0,1-.048-4.141,11.178,11.178,0,0,1,3.155-5.6,12.007,12.007,0,0,1,5.157-2.661,16.716,16.716,0,0,1,4.143.153,10.615,10.615,0,0,1,7.568,7.04A16.042,16.042,0,0,1,1037,414.53Z" transform="translate(-162.448 -7.861)" fill="#0b1e27"/>
      <path id="Trazado_11925" data-name="Trazado 11925" d="M871.842,414.43a10.376,10.376,0,0,1,4.269-9.227,10.557,10.557,0,0,1,6.953-1.938,14.036,14.036,0,0,1,3.278.873c.589.354,1.205.669,1.761,1.067a10.554,10.554,0,0,1,4.316,7.71,13.251,13.251,0,0,1-1.07,5.228,11.927,11.927,0,0,1-4.827,4.711,12.771,12.771,0,0,1-4.98.969,10.714,10.714,0,0,1-8.881-6.141A19.663,19.663,0,0,1,871.842,414.43Z" transform="translate(-59.831 -7.775)" fill="#1e464f"/>
      <path id="Trazado_11926" data-name="Trazado 11926" d="M867.005,392.493l.253-.2Z" transform="translate(-56.405)" fill="#febd00"/>
      <path id="Trazado_11927" data-name="Trazado 11927" d="M913.82,523.528q0,13.77-.01,27.539l-.66.075-4.142-.009-15.471-.005-2.906-.7a8.822,8.822,0,0,1-3.734-3.747c.151-.156.3-.312.453-.467a16.621,16.621,0,0,0,5.11-10.965,1.938,1.938,0,0,0,.178-1.146,27.523,27.523,0,0,0-.675-4.969,23.965,23.965,0,0,1,3.112-2.6,23.054,23.054,0,0,1,6.976-2.705,30.824,30.824,0,0,1,4.3-.334c2.483-.006,4.965-.043,7.447-.066Z" transform="translate(-70.518 -93.036)" fill="#1e464f"/>
      <path id="Trazado_11928" data-name="Trazado 11928" d="M864.116,491.689a27.533,27.533,0,0,0-.675-4.969,1.129,1.129,0,0,0-.156-.054,34.745,34.745,0,0,0-4.878-10.192.92.92,0,0,0-.025-.2l-1.633-2.216h0a1.261,1.261,0,0,1-.007-.217c-2.02-2.633-4-5.3-6.242-7.753-.168-.185-.354-.353-.531-.529a1.387,1.387,0,0,0-.684.35,4.012,4.012,0,0,0-.35.365,4.012,4.012,0,0,1,.35-.365,1.387,1.387,0,0,1,.684-.35,1.63,1.63,0,0,0-.012-.182c-.726-.515-1.151-1.448-2.17-1.554a.325.325,0,0,1-.024-.136l-.609-.04-.41,0q-.02.521-.041,1.043l.194,3.276-.19.649q.03,7.519.059,15.038h0q-.033.324-.065.648a21.86,21.86,0,0,1,.194,3.277h0l-.19.651q.028,7.518.055,15.037a1,1,0,0,0,.685-.4,1,1,0,0,1-.685.4q-.033.325-.066.651c.435,1.069.09,2.184.193,3.272a.927.927,0,0,0,.193-.02.932.932,0,0,1-.194.02,2.853,2.853,0,0,0-.144,1.454,10.515,10.515,0,0,0,3.318-.287,17.808,17.808,0,0,0,8.314-4.094c.151-.156.3-.312.454-.467a16.62,16.62,0,0,0,5.11-10.965A1.938,1.938,0,0,0,864.116,491.689Zm-17.032-4.128a1.654,1.654,0,0,0,.813-.628A1.654,1.654,0,0,1,847.084,487.561Z" transform="translate(-41.994 -50.625)" fill="#04bdfd"/>
      <path id="Trazado_11929" data-name="Trazado 11929" d="M789.416,499.124q.027.2.053.406l.648,1.288c.006.147.034.273.227.252,0,0,0,0,0,0l.537.474h0c.187.263.361.536.564.787a18.273,18.273,0,0,0,8.486,5.691l.642.026c.892.469,1.92.3,2.847.614l1.329-.03a2.848,2.848,0,0,1,.144-1.454c-.1-1.088.241-2.2-.193-3.272q.033-.325.065-.651-.028-7.519-.055-15.037l.19-.651a21.909,21.909,0,0,0-.194-3.277,1.142,1.142,0,0,0-.816.49,1.142,1.142,0,0,1,.816-.49q.033-.324.065-.648-.029-7.519-.058-15.038c-.835.8-1.684,1.586-2.5,2.4.819-.816,1.668-1.6,2.5-2.4l.19-.649-.194-3.276q.02-.522.041-1.043a2.629,2.629,0,0,0-2.158.841,67.041,67.041,0,0,0-7.277,8.9h.01l-.195.239-1.5,1.967-.217.306a.1.1,0,0,1-.06.119,51.794,51.794,0,0,0-3.843,7.2,22.294,22.294,0,0,0-1.619,4.807c-.081.363-.019.806-.388,1.074V493a24.547,24.547,0,0,0,1.292,4.875c.191.422.446.816.623,1.244" transform="translate(0 -50.605)" fill="#5ae5fe"/>
    </g>
  </g>
</svg>
