<svg id="me_encanta" xmlns="http://www.w3.org/2000/svg" xmlns:xlink="http://www.w3.org/1999/xlink" width="50.924" height="50.764" viewBox="0 0 50.924 50.764">
  <defs>
    <linearGradient id="linear-gradient" x1="0.788" y1="0.253" x2="0.466" y2="0.529" gradientUnits="objectBoundingBox">
      <stop offset="0" stop-color="#fff"/>
      <stop offset="0.053" stop-color="#fff" stop-opacity="0.882"/>
      <stop offset="0.155" stop-color="#fff" stop-opacity="0.678"/>
      <stop offset="0.261" stop-color="#fff" stop-opacity="0.494"/>
      <stop offset="0.369" stop-color="#fff" stop-opacity="0.341"/>
      <stop offset="0.481" stop-color="#fff" stop-opacity="0.22"/>
      <stop offset="0.596" stop-color="#fff" stop-opacity="0.122"/>
      <stop offset="0.716" stop-color="#fff" stop-opacity="0.055"/>
      <stop offset="0.846" stop-color="#fff" stop-opacity="0.012"/>
      <stop offset="1" stop-color="#fff" stop-opacity="0"/>
      <stop offset="1" stop-color="#232020" stop-opacity="0"/>
    </linearGradient>
  </defs>
  <ellipse id="Elipse_1937" data-name="Elipse 1937" cx="25.382" cy="25.382" rx="25.382" ry="25.382" transform="translate(0.161 0)" fill="#faca27"/>
  <ellipse id="Elipse_1938" data-name="Elipse 1938" cx="23.26" cy="23.26" rx="23.26" ry="23.26" transform="translate(2.202 2.122)" opacity="0.3" fill="url(#linear-gradient)"/>
  <path id="Trazado_8874" data-name="Trazado 8874" d="M154.991,72.352c-.357-14.019,5.958-21.256,16.784-25.282a25.384,25.384,0,1,0,9.964,49.651,18.234,18.234,0,0,1-3.2.2A25.407,25.407,0,0,1,154.991,72.352Z" transform="translate(-149.595 -46.87)" fill="#faad1e"/>
  <path id="Trazado_8875" data-name="Trazado 8875" d="M197.373,99.774a9.755,9.755,0,1,1-19.51,0c0-5.387,4.367-.641,9.755-.641S197.373,94.386,197.373,99.774Z" transform="translate(-162.156 -69.146)" fill="#802e19"/>
  <ellipse id="Elipse_1939" data-name="Elipse 1939" cx="3.342" cy="4.344" rx="3.342" ry="4.344" transform="translate(9.308 15.604)" fill="#c44a1f"/>
  <ellipse id="Elipse_1940" data-name="Elipse 1940" cx="3.342" cy="4.344" rx="3.342" ry="4.344" transform="translate(35.217 15.604)" fill="#c44a1f"/>
  <path id="Trazado_8876" data-name="Trazado 8876" d="M167.9,80.521s-16.1-4.734-10.74-13.023c2.954-4.565,7.384.746,7.384.746s-.2-7.459,6.176-4.774S167.9,80.521,167.9,80.521Z" transform="translate(-152.469 -53.898)" fill="#ee3a3d"/>
  <path id="Trazado_8877" data-name="Trazado 8877" d="M210.36,80.521s16.1-4.734,10.741-13.023c-2.954-4.565-7.384.746-7.384.746s.194-7.459-6.176-4.774S210.36,80.521,210.36,80.521Z" transform="translate(-174.345 -53.898)" fill="#ee3a3d"/>
</svg>
